<?xml version="1.0" encoding="utf-8"?>
<!-- Generator: Adobe Illustrator 24.1.0, SVG Export Plug-In . SVG Version: 6.00 Build 0)  -->
<svg version="1.1" id="Layer_1" xmlns="http://www.w3.org/2000/svg" xmlns:xlink="http://www.w3.org/1999/xlink" x="0px" y="0px"
	 viewBox="0 0 2411 512" style="enable-background:new 0 0 2411 512;" xml:space="preserve">
<style type="text/css">
	.st0{fill:#FE9101;}
	.st1{fill:#FF9100;}
</style>
<g>
	<path class="st0" d="M26.7,247.1c4.4-38.1,23.2-69,55-88.7c31.6-19.6,67.1-23.8,103.3-7.9c0-27.6,0-53.4,0-79.2
		c-9-3.8-10.1-11.2-2.5-17c3.9-3,4-7.9,0.1-10.6c-7-5-6.9-9.2,0.1-14.5c1.6-1.2,2.7-3.3,3.7-5.2c3.4-6.7,9.9-7.3,14.5-1.3
		c2.8,3.7,9.3,3.9,12.6,0.5c5.4-5.7,7.1-5.4,13.7-1.8c3.2,1.8,7.6,1.9,11.5,1.6c11.8-0.7,23.6-1.9,35.3-3c14.6-1.4,29.3-3,43.9-4.3
		c9.4-0.9,18.9-1.5,28.3-2.3c15.9-1.4,31.9-2.9,47.8-4.3c9.4-0.8,18.9-1.4,28.3-2.3c15.6-1.4,31.1-3,46.7-4.3
		c9.8-0.9,19.6-1.5,29.4-2.2c1.4-0.1,3.3-0.3,4.3,0.4c3.1,2.5,6.9,5,8.3,8.4c1.3,3-4.7,8-9.7,8.8c-5.7,0.9-11.5,1.7-17.3,2.2
		c-15.1,1.2-30.2,2.1-45.2,3.4c-20.7,1.7-41.3,3.7-62,5.5c-17.2,1.5-34.4,2.9-51.6,4.4c-21.4,1.8-42.8,3.6-64.1,5.6
		c-10.4,1-20.8,2.2-31.3,3.4c0,3.7,0,7,0,10.6c4.6,0.3,8.3,1.1,11.5-4.2c3.2-5.3,8.1-5.5,12.2,0.4c2.4,3.5,4.7,4.2,8.4,4.2
		c78.8-0.1,157.6-0.1,236.5,0c2.1,0,4.7,0,6.2,1.1c2.6,2.1,6.2,4.9,6.4,7.7c0.4,4-2.9,7.3-7.5,8c-2.1,0.3-4.3,0.8-6.4,0.8
		c-77.9,0-155.8,0-233.7,0c-2.2,0-4.4,0-6.9,0c0,23.5,0,46.7,0,70.2c16.4,0.8,32.5,3.9,47,11.5c8.7,4.5,15.6,2.7,23.6-1.1
		c24.1-11.4,49-13.2,74.7-5.2c13.4,4.2,25.6,10.7,36.8,18.9c4.7,3.4,8.9,7.7,12.8,12.1c6.3,7.3,12.9,14.5,17.9,22.7
		c4.9,7.8,8.4,16.6,11.6,25.3c2.5,6.9,3.6,14.4,5.4,21.7c5.4,0.3,11.4,0.1,17,1.1c6.9,1.2,8.5,4,8.7,10.9
		c0.3,17.8-2.4,35.1-6.6,52.3c-7.7,32-20.6,61.5-39.4,88.7c-14.8,21.4-33,39.3-52.7,55.9c-25.3,21.3-54.5,35.1-85.7,45.1
		c-16.3,5.2-33,8.2-50,9.9c-22.3,2.3-44.5,1.2-66.4-3c-23.8-4.5-46.9-11.8-68.2-23.2c-15.6-8.4-30.3-18.7-44.5-29.3
		c-18.5-13.8-33.9-30.6-47.7-49.2c-15.2-20.4-26.4-42.7-35.4-66.4c-7.5-19.7-11.8-40-13.9-60.9c-0.7-6.5-1-13.1-1-19.6
		c0-7.8,4.5-11.9,12.4-12.1C17,247,21.4,247.1,26.7,247.1z M493,265.1c-158.5,0-316.2,0-474.4,0c0.5,8.8,0.1,17.3,1.7,25.4
		c3,15.6,6,31.4,11.3,46.2c5.9,16.5,13.8,32.4,22.2,47.8c5.2,9.5,12.7,17.8,19.6,26.3c5,6.3,10.1,12.7,16.2,17.9
		c9.2,7.9,19.3,14.8,28.8,22.3c10.9,8.6,23.1,15.2,35.7,20.7c11.1,4.8,22.6,9.1,34.3,12.1c15.1,3.8,30.4,7.8,45.8,8.6
		c20,1,40.2-0.3,60.2-1.9c23.8-1.9,46.1-9.8,67.4-20.2c24.8-12.1,46.5-28.3,66-48.2c23.9-24.3,40.9-52.5,52.5-84.2
		C488.8,314.7,493.1,290.4,493,265.1z M291.8,246.8c3.5-20.2,12.9-37.1,28.3-50.1c19.1-16.1,40.9-24.2,66-18.4
		c13.2,3.1,25.2,9.4,35.5,18.7c6.1,5.5,11.2,11.5,15.6,18.5c5.3,8.6,9.1,17.5,11.4,27.3c0.4,1.6,2,4,3.2,4.1c4.8,0.5,9.7,0.2,16,0.2
		c-2.1-9.5-3.1-18.2-6.1-26.1c-7.1-18.8-18.4-34.8-35.5-46c-10.8-7.1-22.5-12.4-35.4-13.7c-11.2-1.2-22.6-1.4-33.9-1.1
		c-15.1,0.4-28.6,6.5-41,14.7c-17.6,11.6-29.3,28-36.7,47.5c-3,7.7-4.9,15.8-4.2,24.5C280.8,246.8,286.2,246.8,291.8,246.8z
		 M62.4,246.9c0.6-2.6,1.1-4.7,1.6-6.8c9.2-38.9,42-64.1,80.8-63.5c7.4,0.1,14.7,2.2,22,3.2c2.9,0.4,12.8-7.6,12.6-10.5
		c-0.1-1.3-1.1-3-2.2-3.8c-1.6-1.1-3.5-1.8-5.4-2.3c-14.4-4-28.9-5.4-43.9-3.5c-21,2.7-38.8,11.3-54.3,25.5
		c-12.3,11.3-20.5,25.1-25.2,40.9c-2,6.6-2.4,13.6-3.6,20.8C51.4,246.9,56.7,246.9,62.4,246.9z M160,247.1c5,0,9.2,0.3,13.4-0.2
		c1.5-0.2,3.5-1.9,4.1-3.4c2.6-6.8,4.1-13.9,7.1-20.5c14.8-32.6,53.6-53.9,89.8-43.8c8.9,2.5,14.2-0.5,19.3-6.8
		c2.4-3,2.1-5.7-1.4-6.6c-9.5-2.6-19.1-5.9-28.8-6.6c-16.4-1.2-32.4,1.1-47.9,8.1c-21.3,9.6-36.8,24.6-46.8,45.3
		C163.6,223.2,159.7,234.3,160,247.1z M431.5,246.8c-2.4-21.8-13.1-38.2-32.5-46.7c-21.9-9.5-44.8-9.4-65.2,4.6
		c-14.1,9.8-23.4,23.6-24,42.3c5.6,0,10.5,0.1,15.5-0.1c1.1-0.1,2.8-1.2,3.1-2.2c4.3-13.1,13.2-22.1,24.9-28.5
		c7.6-4.2,16.3-6.4,24.5-3.9c17.7,5.2,29.8,17,36,34.5C419.5,246.8,425.1,246.8,431.5,246.8z M80.6,247.1c4.8,0,9.1-0.2,13.5,0.1
		c3.1,0.2,4.3-0.9,5.4-3.9c5.3-13.4,13.7-24.3,28.2-28.5c6.3-1.9,13.2-2.1,19.8-2.9c3.5-0.4,10.7-11.9,8.9-14.8
		c-0.5-0.8-2-1.1-3.1-1.3c-23.4-5.7-50.4,4.7-63.6,24.6C84.4,228.2,80.8,236.8,80.6,247.1z M272.5,196.3
		c-44.1-10.8-77.5,23.2-76.9,50.7c4.1,0,8.3-0.2,12.5,0.1c3.6,0.3,5.4-1.4,6.5-4.4c7.9-21.3,23.9-30.6,46-31c1.6,0,4.1,0.1,4.6-0.8
		C267.9,206.4,270,201.5,272.5,196.3z M203,152.7c8.1-0.5,8.8-1.2,8.8-8.8c0-22.4,0-44.8,0-67.2c0-1.9,0-3.9,0-5.8
		c-8.8-0.6-8.8-0.6-8.8,7.5C203,103.1,203,127.7,203,152.7z M346.5,246.8c16.3,0,32.2,0,48.1,0c-2-10.8-5-17.7-31.3-16.3
		C354.8,230.9,346.5,238.6,346.5,246.8z M229.7,70.8c0,24.4,0,48.3,0,72.2c8.5,0.7,8.5,0.7,8.5-7.4c0-16.3,0-32.6,0-48.9
		c0-5.3,0-10.5,0-15.9C235.1,70.8,232.6,70.8,229.7,70.8z M258.4,230c-14.9-1.8-25.3,5.3-25.9,17.1c6.6,0,13.2,0.2,19.8-0.2
		c1.6-0.1,3.9-2.1,4.3-3.7C257.7,239,257.9,234.6,258.4,230z M117.9,246.9c7.9,0,15.4,0,23.4,0c0.9-5.7,1.7-11.3,2.6-16.9
		C130.4,228.4,121.1,234.6,117.9,246.9z M211.4,52.9c0-3,0-5.7,0-8.3c-3,0-5.6,0-8,0c0,3,0,5.6,0,8.3
		C206.3,52.9,208.6,52.9,211.4,52.9z"/>
	<g id="zNO0mj_1_">
		<g>
			<path class="st1" d="M770.4,384.1c-32.1-1-62-6.6-80-37.5c-9.9-16.9-12.4-35.4-11.2-54.5c3.1-51.5,22.2-95.8,61.4-130.4
				c31.1-27.5,67.5-41.7,109.4-40.5c33.5,0.9,61.2,24.5,61.4,66.9c0.1,20.4-24.4,35.2-42.7,26.6c-9.8-4.6-9.8-14.4-10-23.1
				c-0.7-24.6-12.8-34.2-36.6-26.6c-27.2,8.7-47,27.6-63.2,50.3c-17.8,24.9-28.1,52.6-29,83.3c-0.8,30.4,26,52.1,55.6,44.1
				c20-5.4,37.7-14.9,47.3-35.1c2.7-5.7,7.4-10.5,10.3-16.1c8.3-16.2,42.3-12.1,48.7,6.5c2.7,8,1.7,14.5-2.3,21.2
				c-22.8,38.2-57.7,57.6-100.9,63.6C782.5,383.6,776.4,383.7,770.4,384.1z"/>
			<path class="st1" d="M984.9,239.7c18.1-22.1,37.9-36.8,62.7-43.1c10-2.5,21.1-2.9,31.4-1.7c18,2.2,27.4,18.3,21.3,35.5
				c-13,37-22.7,74.7-26.6,113.8c-0.5,5.4-0.7,11.6,1.3,16.5c4.2,10.4-0.1,17.2-7.7,23c-9.7,7.6-21.2,8.8-32.5,5.9
				c-9.8-2.6-12.3-12-11.5-20.7c1.8-19.4,3.7-38.9,7.8-57.9c5-22.9,12.4-45.2,18.5-67.8c0.8-3.2,0.2-6.7,0.3-10.1
				c-3.7,0.1-7.9-0.9-11,0.6c-23.2,10.8-38.1,30.3-48.4,52.2c-10.8,23-18.8,47.4-26.8,71.6c-5.1,15.3-8.4,19.2-24.4,19.6
				c-3.5,0.1-7.2,0-10.7-0.4c-18.6-2.3-21.5-7.1-16.9-25.4c19.3-75.7,38.6-151.4,57.3-227.2c2.3-9.4,1.5-19.7,1.3-29.6
				c-0.1-8,3.1-13.8,10.8-14.7c8.9-1,18.6-1.8,27,0.5c13.4,3.7,18.1,15.2,14.2,28.6c-11.8,40.6-23.6,81.2-35.3,121.7
				C986.5,232.7,986.1,234.6,984.9,239.7z"/>
			<path class="st1" d="M1443.1,304.3c-10.9,18.1-20.2,36.6-32.6,52.7c-7.4,9.7-18.8,17.7-30,22.8c-19,8.7-38.7,0.4-44.7-19.6
				c-5-16.7-8.6-34.9-7.6-52.1c1.9-31.8,7.7-63.3,11.7-94.9c2.3-18.7,21.3-23.3,35.1-19.3c9.6,2.8,12.9,10.6,10.7,22.4
				c-4.4,23.7-9.8,47.3-12.6,71.2c-1.8,15.3-0.8,31.1,1,46.5c1.3,10.7,9.1,12.4,16.4,4.3c4.7-5.2,8.5-11.4,11.5-17.8
				c16.2-33.9,24.6-70.2,32.2-106.7c3.6-17,14.8-23.8,31.3-19.2c14.5,4.1,17.8,10,15.7,25.1c-4.6,32.2-9.2,64.5-12.8,96.9
				c-1.2,10.2,0.1,23,11.8,25.9c12,3,17.9-8.6,22.3-17.8c17-35.1,22.8-72.9,26.1-111.3c1.3-14.7,6.6-19.6,21.1-17.9
				c5.3,0.6,11,1.2,15.4,3.7c3.2,1.8,6.8,6.9,6.5,10.2c-4.1,39.6-9.3,79.2-24.7,116.2c-6.2,14.7-15.2,29.1-26.1,40.6
				c-7.4,7.9-19.8,12.8-30.8,15.2c-27.4,6-43.3-5.7-46.6-33.8C1441.7,333.2,1443.1,318.5,1443.1,304.3z"/>
			<path class="st1" d="M2201.4,303.1c-10.7,18-20.3,37.1-32.9,53.9c-7.3,9.7-18.8,17.6-30,22.8c-18.5,8.6-36.8,0.3-44.8-18.5
				c-10.1-23.7-10.4-49-6.2-73.4c4.6-26.4,13.2-52.1,21-77.8c3.7-12.1,13.3-17.8,26.4-17.4c15.5,0.4,22.4,9.8,17.8,24.9
				c-6.8,22.4-14.8,44.5-20,67.3c-3.1,13.6-2.9,28.1-2.3,42.2c0.2,5.4,5.4,10.6,8.3,15.9c4.9-3.1,11.8-5.2,14.2-9.6
				c10.1-18.2,20.4-36.7,27.7-56.1c8.3-21.8,13.8-44.7,20.1-67.2c3.2-11.6,14.1-18.8,25.9-16.3c11.2,2.4,15.5,9.9,13.2,23.7
				c-4.3,25.9-9.5,51.6-12.6,77.7c-1.5,12.4-0.5,25.6,2.3,37.7c2.8,12.3,13.1,14.5,21.4,4.8c7-8.2,13.5-17.9,16.7-28.1
				c9.7-31.5,17.7-63.5,26.3-95.3c1.8-6.7,1.1-16.4,9.9-16.9c10.5-0.6,21.3,2.1,31.8,4.2c1.2,0.2,2.5,5.6,1.8,8.2
				c-8.8,35.4-16.5,71.2-27.5,106c-5,15.8-15.4,30.4-25.2,44c-11.2,15.5-28,22.5-47.3,23.1c-17.2,0.5-29-6.2-32.6-22.9
				c-3.4-16-3.1-32.9-4.1-49.5C2200.4,307.6,2201.2,304.7,2201.4,303.1z"/>
			<path class="st1" d="M1758.9,329.3c8.2-17.2,15.9-34.6,24.8-51.5c22.7-43.4,45.9-86.6,69.1-129.8c3.2-5.9,7.3-11.4,11.5-16.6
				c10.9-13.8,32.9-12.6,41.9,2.9c2.2,3.8,2.5,10.8,0.5,14.6c-37.5,68.2-75.4,136.1-113.5,204c-9.6,17.1-22.6,29.9-44.2,30.8
				c-21.9,1-35.5-9.3-36.6-30.5c-3.4-67-5.7-134.1-9.6-201.1c-1.5-26,19.8-32.4,37.4-29.2c10.7,2,14.7,10.4,14.8,20.6
				c0.4,30.9,0.8,61.8,1,92.8c0.2,30.9,0,61.8,0,92.6C1756.9,328.9,1757.9,329.1,1758.9,329.3z"/>
			<path class="st1" d="M2061,255c4.4,49.6-34.9,109.9-79.8,124.8c-45,14.9-84.4-7.6-94.5-54.2c-12.3-56.5,20.5-116.7,74.1-133.9
				c12.3-3.9,26-5.9,38.8-5.3c35.1,1.9,59.5,28.1,61.1,63.4C2060.9,252.2,2061,254.7,2061,255z M2014.2,255.7
				c0-3.6,0.3-7.1-0.1-10.6c-1.9-19.9-17.2-30.1-36.4-24.1c-3.3,1-6.6,2.7-9.5,4.7c-24,16.2-44.2,69.5-36.6,97.3
				c3.9,14.2,12.2,25.7,27.1,28.7c13.3,2.7,21.8-7.3,28.8-16.7C2005,311.5,2013.4,284.8,2014.2,255.7z"/>
			<path class="st1" d="M1303.6,261.5c1.3,48.6-38.2,105.2-82.6,118.6c-43.8,13.2-81.6-8.4-92.1-52.6
				c-14.2-59.7,23-123.3,81.1-138.4c34.3-9,64.1,0,81.1,24.8C1300.9,228.2,1303.4,244.6,1303.6,261.5z M1256.6,261.7
				c0.1-32.9-11-45.7-32.3-41.4c-8.4,1.7-17.4,7.3-23.1,13.7c-20,22.7-28.9,50.1-28.9,80.2c0,13.7,7,24.4,17.6,32.6
				c10.8,8.4,22.1,7.1,33.1-4.7C1246.1,317.8,1254.7,287.5,1256.6,261.7z"/>
		</g>
	</g>
</g>
</svg>
