<?xml version="1.0" encoding="utf-8"?>
<!-- Generator: Adobe Illustrator 24.0.1, SVG Export Plug-In . SVG Version: 6.00 Build 0)  -->
<svg version="1.1" id="Layer_1" xmlns="http://www.w3.org/2000/svg" xmlns:xlink="http://www.w3.org/1999/xlink" x="0px" y="0px"
	 viewBox="0 0 2410.96 511.96" style="enable-background:new 0 0 2410.96 511.96;" xml:space="preserve">
<style type="text/css">
	.st0{fill:#FE9101;}
	.st1{fill:#FF9100;}
	.st2{fill:#FFFFFF;}
</style>
<g>
	<path class="st0" d="M26.7,247.06c4.4-38.15,23.17-68.96,54.98-88.73c31.57-19.62,67.05-23.75,103.33-7.89c0-27.55,0-53.38,0-79.21
		c-8.99-3.84-10.05-11.21-2.48-16.98c3.9-2.97,3.98-7.91,0.15-10.64c-7.01-5-6.89-9.16,0.09-14.46c1.61-1.22,2.74-3.28,3.68-5.16
		c3.36-6.69,9.93-7.34,14.47-1.31c2.78,3.69,9.29,3.92,12.56,0.45c5.36-5.7,7.08-5.44,13.66-1.84c3.19,1.75,7.65,1.88,11.47,1.65
		c11.79-0.73,23.56-1.92,35.32-3.04c14.64-1.39,29.27-2.96,43.91-4.32c9.42-0.88,18.87-1.46,28.29-2.29
		c15.93-1.4,31.85-2.93,47.78-4.33c9.42-0.83,18.86-1.44,28.28-2.29c15.57-1.39,31.14-2.95,46.71-4.33
		c9.79-0.86,19.6-1.55,29.4-2.24c1.43-0.1,3.34-0.35,4.26,0.41c3.07,2.52,6.86,4.99,8.34,8.37c1.31,3.02-4.71,8.04-9.73,8.83
		c-5.73,0.9-11.49,1.69-17.26,2.16c-15.07,1.23-30.18,2.14-45.25,3.41c-20.66,1.73-41.29,3.71-61.95,5.52
		c-17.21,1.51-34.42,2.91-51.64,4.38c-21.38,1.83-42.76,3.62-64.12,5.57c-10.42,0.95-20.82,2.23-31.34,3.37c0,3.71,0,6.97,0,10.62
		c4.63,0.33,8.31,1.13,11.53-4.25c3.18-5.3,8.14-5.52,12.16,0.37c2.42,3.54,4.74,4.18,8.41,4.18c78.82-0.06,157.65-0.06,236.47-0.01
		c2.1,0,4.73-0.05,6.19,1.1c2.63,2.07,6.18,4.9,6.41,7.66c0.35,4.05-2.93,7.31-7.55,8.03c-2.12,0.33-4.26,0.78-6.4,0.78
		c-77.9,0.04-155.81,0.03-233.71,0.03c-2.18,0-4.37,0-6.9,0c0,23.52,0,46.74,0,70.21c16.42,0.82,32.47,3.85,47.04,11.46
		c8.68,4.54,15.61,2.71,23.62-1.1c24.11-11.45,49.05-13.23,74.68-5.21c13.41,4.19,25.58,10.68,36.79,18.92
		c4.7,3.45,8.93,7.71,12.76,12.13c6.3,7.28,12.85,14.52,17.88,22.66c4.85,7.84,8.4,16.61,11.57,25.32
		c2.52,6.92,3.61,14.36,5.37,21.73c5.44,0.29,11.35,0.06,17.04,1.06c6.85,1.21,8.55,3.99,8.68,10.94
		c0.33,17.76-2.42,35.15-6.56,52.34c-7.71,31.95-20.57,61.55-39.35,88.68c-14.8,21.38-32.99,39.32-52.74,55.94
		c-25.31,21.31-54.54,35.09-85.74,45.14c-16.27,5.24-32.99,8.2-50,9.94c-22.32,2.28-44.49,1.21-66.39-2.96
		c-23.76-4.52-46.9-11.83-68.2-23.23c-15.61-8.36-30.29-18.71-44.53-29.32c-18.46-13.75-33.89-30.63-47.69-49.17
		c-15.2-20.43-26.43-42.69-35.4-66.44c-7.47-19.74-11.77-40.02-13.92-60.86c-0.67-6.52-0.99-13.1-0.99-19.65
		c0-7.77,4.5-11.94,12.43-12.08C17,246.99,21.4,247.06,26.7,247.06z M493.01,265.07c-158.45,0-316.16,0-474.43,0
		c0.51,8.75,0.09,17.29,1.68,25.43c3.04,15.57,5.95,31.37,11.29,46.23c5.93,16.49,13.79,32.41,22.19,47.84
		c5.18,9.51,12.72,17.78,19.57,26.31c5.03,6.27,10.12,12.69,16.15,17.91c9.18,7.94,19.28,14.81,28.84,22.32
		c10.94,8.59,23.08,15.22,35.7,20.72c11.09,4.84,22.58,9.09,34.29,12.06c15.06,3.83,30.42,7.84,45.82,8.64
		c19.99,1.03,40.21-0.32,60.22-1.94c23.77-1.92,46.12-9.82,67.43-20.19c24.81-12.07,46.53-28.34,65.99-48.16
		c23.87-24.32,40.92-52.55,52.49-84.23C488.77,314.66,493.08,290.42,493.01,265.07z M291.81,246.75
		c3.53-20.23,12.9-37.05,28.32-50.11c19.07-16.15,40.94-24.21,65.96-18.37c13.18,3.08,25.19,9.4,35.47,18.7
		c6.07,5.49,11.24,11.46,15.59,18.48c5.31,8.57,9.15,17.52,11.41,27.29c0.37,1.59,1.97,3.99,3.19,4.11c4.83,0.48,9.73,0.2,16.01,0.2
		c-2.15-9.46-3.13-18.18-6.14-26.14c-7.12-18.8-18.4-34.77-35.49-46.02c-10.8-7.11-22.52-12.36-35.39-13.69
		c-11.24-1.16-22.63-1.37-33.94-1.09c-15.14,0.38-28.58,6.54-40.99,14.68c-17.61,11.55-29.26,28.01-36.69,47.46
		c-2.95,7.73-4.88,15.83-4.24,24.5C280.8,246.75,286.22,246.75,291.81,246.75z M62.37,246.93c0.59-2.55,1.08-4.66,1.58-6.78
		c9.2-38.95,42.04-64.1,80.77-63.52c7.35,0.11,14.66,2.17,22.01,3.22c2.95,0.42,12.8-7.62,12.63-10.49
		c-0.08-1.33-1.14-2.96-2.25-3.77c-1.55-1.13-3.52-1.81-5.41-2.34c-14.4-4.04-28.91-5.41-43.91-3.46
		c-20.97,2.72-38.84,11.28-54.32,25.5c-12.29,11.29-20.5,25.08-25.25,40.85c-1.98,6.59-2.4,13.65-3.58,20.79
		C51.41,246.93,56.71,246.93,62.37,246.93z M160.03,247.07c4.96,0,9.2,0.31,13.35-0.16c1.52-0.17,3.54-1.93,4.11-3.43
		c2.57-6.76,4.13-13.95,7.1-20.51c14.76-32.61,53.62-53.89,89.79-43.81c8.85,2.46,14.24-0.47,19.29-6.84
		c2.38-3.01,2.11-5.66-1.36-6.61c-9.51-2.59-19.08-5.86-28.79-6.56c-16.43-1.19-32.41,1.08-47.95,8.1
		c-21.32,9.63-36.77,24.56-46.84,45.32C163.55,223.2,159.67,234.28,160.03,247.07z M431.5,246.83
		c-2.44-21.79-13.06-38.24-32.47-46.65c-21.85-9.47-44.81-9.41-65.16,4.61c-14.15,9.75-23.43,23.56-24,42.27
		c5.61,0,10.54,0.13,15.46-0.1c1.1-0.05,2.77-1.18,3.1-2.17c4.27-13.06,13.21-22.12,24.87-28.53c7.56-4.16,16.27-6.38,24.53-3.94
		c17.67,5.2,29.75,17.02,36.05,34.51C419.47,246.83,425.12,246.83,431.5,246.83z M80.63,247.07c4.76,0,9.13-0.17,13.49,0.06
		c3.05,0.16,4.27-0.94,5.43-3.87c5.3-13.44,13.73-24.28,28.17-28.52c6.34-1.86,13.17-2.14,19.8-2.92
		c3.49-0.41,10.71-11.87,8.93-14.79c-0.49-0.8-2.03-1.06-3.15-1.33c-23.37-5.7-50.39,4.68-63.61,24.56
		C84.41,228.21,80.78,236.78,80.63,247.07z M272.55,196.34c-44.15-10.83-77.49,23.17-76.87,50.73c4.15,0,8.34-0.25,12.49,0.08
		c3.6,0.29,5.36-1.42,6.48-4.43c7.94-21.3,23.95-30.59,45.99-30.97c1.59-0.03,4.09,0.05,4.6-0.84
		C267.88,206.38,270.01,201.54,272.55,196.34z M202.98,152.7c8.15-0.49,8.82-1.18,8.82-8.77c0-22.41,0-44.82,0-67.23
		c0-1.95,0-3.9,0-5.79c-8.81-0.59-8.82-0.59-8.82,7.53C202.98,103.06,202.98,127.67,202.98,152.7z M346.53,246.8
		c16.31,0,32.17,0,48.08,0c-2.03-10.77-5-17.73-31.27-16.32C354.83,230.94,346.49,238.64,346.53,246.8z M229.74,70.82
		c0,24.43,0,48.35,0,72.24c8.51,0.74,8.51,0.74,8.51-7.37c0-16.31,0-32.62,0-48.92c0-5.26,0-10.52,0-15.95
		C235.15,70.82,232.64,70.82,229.74,70.82z M258.42,229.96c-14.89-1.77-25.31,5.26-25.85,17.11c6.61,0,13.22,0.24,19.79-0.17
		c1.55-0.1,3.9-2.14,4.28-3.68C257.68,239.02,257.86,234.62,258.42,229.96z M117.92,246.88c7.88,0,15.36,0,23.36,0
		c0.88-5.71,1.73-11.3,2.59-16.93C130.36,228.4,121.07,234.56,117.92,246.88z M211.42,52.86c0-3.04,0-5.65,0-8.33
		c-3.01,0-5.61,0-7.97,0c0,3,0,5.61,0,8.33C206.29,52.86,208.64,52.86,211.42,52.86z"/>
	<g id="zNO0mj_1_">
		<g>
			<path class="st1" d="M770.4,384.11c-32.07-1-61.97-6.65-79.97-37.48c-9.87-16.9-12.37-35.41-11.21-54.48
				c3.14-51.51,22.2-95.81,61.36-130.39c31.12-27.48,67.55-41.67,109.38-40.5c33.46,0.93,61.2,24.52,61.4,66.86
				c0.1,20.36-24.36,35.19-42.71,26.6c-9.78-4.58-9.79-14.37-10.05-23.09c-0.73-24.64-12.81-34.19-36.56-26.62
				c-27.25,8.69-46.95,27.58-63.18,50.31c-17.77,24.9-28.14,52.56-29,83.28c-0.85,30.43,26.05,52.12,55.56,44.09
				c19.96-5.43,37.7-14.94,47.3-35.07c2.73-5.71,7.44-10.46,10.33-16.12c8.28-16.21,42.31-12.07,48.68,6.45
				c2.74,7.95,1.67,14.53-2.33,21.22c-22.84,38.22-57.66,57.61-100.91,63.58C782.52,383.58,776.43,383.67,770.4,384.11z"/>
			<path class="st1" d="M984.94,239.7c18.1-22.05,37.89-36.82,62.66-43.08c10.02-2.53,21.14-2.94,31.44-1.7
				c17.96,2.16,27.37,18.28,21.34,35.48c-12.97,37.01-22.69,74.74-26.57,113.81c-0.54,5.44-0.7,11.56,1.26,16.46
				c4.17,10.4-0.13,17.16-7.66,23.05c-9.71,7.59-21.22,8.79-32.48,5.85c-9.84-2.56-12.31-11.97-11.48-20.67
				c1.83-19.38,3.69-38.9,7.81-57.87c4.97-22.86,12.4-45.18,18.5-67.8c0.85-3.16,0.22-6.71,0.28-10.08
				c-3.7,0.13-7.93-0.86-11.01,0.58c-23.17,10.8-38.1,30.25-48.42,52.24c-10.79,23.01-18.78,47.41-26.77,71.61
				c-5.06,15.33-8.4,19.25-24.44,19.61c-3.55,0.08-7.15,0-10.67-0.44c-18.61-2.32-21.55-7.09-16.89-25.38
				c19.26-75.7,38.57-151.4,57.26-227.24c2.32-9.42,1.46-19.71,1.33-29.59c-0.1-8.01,3.06-13.81,10.79-14.67
				c8.91-0.99,18.56-1.83,26.97,0.52c13.42,3.74,18.06,15.25,14.16,28.62c-11.81,40.57-23.57,81.15-35.32,121.73
				C986.49,232.67,986.12,234.65,984.94,239.7z"/>
			<path class="st1" d="M1443.09,304.3c-10.94,18.08-20.21,36.56-32.58,52.67c-7.43,9.67-18.75,17.69-29.98,22.84
				c-19.02,8.72-38.66,0.36-44.68-19.62c-5.04-16.71-8.59-34.91-7.58-52.15c1.87-31.75,7.68-63.26,11.66-94.89
				c2.35-18.7,21.35-23.33,35.07-19.26c9.56,2.84,12.91,10.57,10.72,22.37c-4.4,23.71-9.8,47.31-12.62,71.2
				c-1.8,15.26-0.84,31.13,1.04,46.45c1.32,10.72,9.08,12.4,16.42,4.31c4.69-5.17,8.49-11.43,11.51-17.76
				c16.19-33.91,24.63-70.2,32.24-106.73c3.55-17.03,14.84-23.84,31.26-19.25c14.49,4.05,17.82,10,15.67,25.14
				c-4.59,32.25-9.16,64.51-12.81,96.87c-1.15,10.21,0.05,22.96,11.79,25.85c12.03,2.96,17.86-8.64,22.3-17.78
				c17.03-35.08,22.76-72.95,26.1-111.28c1.28-14.66,6.59-19.65,21.1-17.89c5.26,0.64,10.97,1.19,15.42,3.67
				c3.19,1.77,6.84,6.91,6.51,10.16c-4.07,39.59-9.27,79.18-24.73,116.17c-6.15,14.71-15.18,29.09-26.07,40.65
				c-7.4,7.87-19.82,12.77-30.83,15.18c-27.43,6.02-43.32-5.66-46.62-33.75C1441.7,333.18,1443.09,318.5,1443.09,304.3z"/>
			<path class="st1" d="M2201.42,303.12c-10.73,17.95-20.26,37.08-32.92,53.85c-7.32,9.71-18.76,17.59-29.98,22.82
				c-18.52,8.63-36.82,0.26-44.77-18.47c-10.06-23.71-10.44-49.03-6.22-73.42c4.57-26.37,13.17-52.11,21.04-77.81
				c3.7-12.07,13.34-17.82,26.39-17.44c15.53,0.45,22.37,9.84,17.8,24.91c-6.8,22.39-14.75,44.52-19.99,67.27
				c-3.12,13.57-2.87,28.15-2.34,42.21c0.21,5.4,5.41,10.61,8.33,15.91c4.87-3.15,11.77-5.18,14.24-9.65
				c10.11-18.25,20.35-36.69,27.73-56.12c8.29-21.81,13.76-44.71,20.07-67.24c3.23-11.55,14.14-18.82,25.86-16.33
				c11.25,2.39,15.46,9.92,13.16,23.74c-4.31,25.88-9.54,51.64-12.63,77.66c-1.47,12.36-0.49,25.58,2.31,37.73
				c2.84,12.3,13.05,14.46,21.41,4.75c7.03-8.16,13.54-17.91,16.67-28.07c9.71-31.49,17.73-63.5,26.31-95.34
				c1.8-6.68,1.08-16.42,9.86-16.89c10.52-0.56,21.29,2.13,31.8,4.17c1.16,0.22,2.47,5.63,1.84,8.17
				c-8.77,35.45-16.54,71.24-27.5,106.02c-4.98,15.8-15.35,30.35-25.25,44.05c-11.22,15.51-28.04,22.51-47.26,23.07
				c-17.21,0.5-29.04-6.24-32.62-22.92c-3.45-16.05-3.05-32.94-4.15-49.47C2200.43,307.56,2201.22,304.74,2201.42,303.12z"/>
			<path class="st1" d="M1758.91,329.3c8.23-17.18,15.95-34.61,24.78-51.48c22.73-43.42,45.86-86.63,69.05-129.81
				c3.17-5.91,7.33-11.36,11.52-16.64c10.94-13.82,32.89-12.59,41.87,2.88c2.19,3.78,2.53,10.81,0.46,14.56
				c-37.5,68.17-75.39,136.12-113.48,203.96c-9.61,17.12-22.59,29.91-44.17,30.84c-21.88,0.95-35.51-9.29-36.6-30.55
				c-3.43-67.03-5.69-134.13-9.61-201.13c-1.52-26.03,19.79-32.45,37.39-29.2c10.73,1.98,14.69,10.41,14.83,20.62
				c0.41,30.92,0.83,61.84,0.99,92.76c0.17,30.88,0.04,61.76,0.04,92.64C1756.95,328.93,1757.93,329.11,1758.91,329.3z"/>
			<path class="st1" d="M2060.99,254.96c4.43,49.6-34.89,109.87-79.77,124.76c-45.04,14.94-84.37-7.6-94.54-54.2
				c-12.32-56.48,20.51-116.69,74.12-133.9c12.28-3.94,25.96-5.95,38.8-5.27c35.09,1.87,59.48,28.11,61.14,63.36
				C2060.86,252.19,2060.98,254.68,2060.99,254.96z M2014.22,255.66c0-3.55,0.29-7.12-0.05-10.63
				c-1.9-19.94-17.18-30.08-36.42-24.09c-3.33,1.04-6.58,2.74-9.48,4.69c-24.03,16.21-44.18,69.49-36.6,97.3
				c3.87,14.2,12.16,25.69,27.06,28.69c13.27,2.67,21.77-7.28,28.81-16.72C2005.02,311.47,2013.42,284.76,2014.22,255.66z"/>
			<path class="st1" d="M1303.6,261.55c1.26,48.57-38.2,105.21-82.57,118.61c-43.75,13.22-81.56-8.41-92.06-52.64
				c-14.17-59.74,23.04-123.28,81.07-138.42c34.33-8.96,64.09-0.03,81.07,24.78C1300.9,228.18,1303.39,244.62,1303.6,261.55z
				 M1256.57,261.73c0.09-32.92-11.02-45.69-32.29-41.4c-8.36,1.69-17.36,7.28-23.06,13.73c-20.04,22.7-28.89,50.14-28.88,80.23
				c0,13.66,6.99,24.43,17.55,32.63c10.77,8.37,22.05,7.07,33.12-4.66C1246.1,317.82,1254.65,287.53,1256.57,261.73z"/>
			<path class="st2" d="M2014.22,255.66c-0.79,29.1-9.19,55.82-26.68,79.25c-7.04,9.44-15.54,19.39-28.81,16.72
				c-14.9-3-23.19-14.49-27.06-28.69c-7.58-27.82,12.57-81.1,36.6-97.3c2.9-1.96,6.15-3.66,9.48-4.69
				c19.24-5.99,34.52,4.15,36.42,24.09C2014.5,248.54,2014.22,252.11,2014.22,255.66z"/>
			<path class="st2" d="M1256.57,261.73c-1.92,25.81-10.47,56.09-33.56,80.54c-11.08,11.73-22.35,13.03-33.12,4.66
				c-10.56-8.2-17.54-18.97-17.55-32.63c-0.01-30.09,8.85-57.53,28.88-80.23c5.7-6.46,14.7-12.05,23.06-13.73
				C1245.55,216.04,1256.66,228.81,1256.57,261.73z"/>
		</g>
	</g>
</g>
</svg>
